<?xml version="1.0" encoding="utf-8"?>
<!-- Generator: Adobe Illustrator 18.1.0, SVG Export Plug-In . SVG Version: 6.00 Build 0)  -->
<!DOCTYPE svg PUBLIC "-//W3C//DTD SVG 1.1//EN" "http://www.w3.org/Graphics/SVG/1.1/DTD/svg11.dtd">
<svg version="1.1" id="Layer_1" xmlns="http://www.w3.org/2000/svg" xmlns:xlink="http://www.w3.org/1999/xlink" x="0px" y="0px"
	 viewBox="-270 375.6 70 43.5" enable-background="new -270 375.6 70 43.5" xml:space="preserve">
<g id="Master_Logos">
	<g>
		<path fill="#626062" d="M-255,414.4c-1.8,2-3.6,2.9-5.9,2.9c-4,0-7.3-3.4-7.3-7.6v-0.1c0-4.2,3.2-7.5,7.3-7.5
			c2.2,0,4.1,0.9,5.8,2.7l0.4,0.4l1.3-1.2l-0.4-0.4c-1.5-1.6-3.6-3.3-7.1-3.3c-2.5,0-4.8,1-6.5,2.8c-1.7,1.7-2.6,4.1-2.6,6.5v0.1
			c0,5.1,4.1,9.3,9.1,9.3c2.9,0,5.2-1.1,7.3-3.5l0.3-0.4l-1.3-1.2L-255,414.4z"/>
		<path fill="#626062" d="M-248.2,404v-3.2h-1.8v17.9h1.8v-9.2c0-3,2.4-7.3,6.2-7.3h0.7v-1.8l-0.6,0
			C-244.8,400.4-246.9,402-248.2,404"/>
		<path fill="#626062" d="M-225.8,400.8v10c0,4.1-2.1,6.5-5.9,6.5c-3.7,0-5.9-2.4-5.9-6.5v-10h-1.8v10c0,5.1,2.9,8.2,7.6,8.2h0.1
			c4.7,0,7.6-3.1,7.6-8.2v-10H-225.8z"/>
		<polygon fill="#3DB1C8" points="-212,375.6 -212,387.6 -200,387.6 -200,389.4 -213.8,389.4 -213.8,375.6 		"/>
		<polygon fill="#007398" points="-217.7,387.6 -217.7,379.2 -215.9,379.2 -215.9,389.4 -226.2,389.4 -226.2,387.6 		"/>
		<polygon fill="#DD7D1B" points="-203.6,391.5 -203.6,393.2 -212,393.2 -212,410.1 -213.8,410.1 -213.8,391.5 		"/>
		<polygon fill="#F9B625" points="-215.9,391.5 -215.9,400.5 -215.9,405.3 -217.7,405.3 -217.7,393.2 -229.7,393.2 -229.7,391.5 		
			"/>
		<path fill="#626062" d="M-209.6,409.4c0-0.4,0.3-0.8,0.8-0.8s0.8,0.3,0.8,0.8c0,0.4-0.3,0.8-0.8,0.8S-209.6,409.8-209.6,409.4z
			 M-208.8,408.7c-0.4,0-0.7,0.3-0.7,0.7s0.3,0.7,0.7,0.7s0.7-0.3,0.7-0.7S-208.4,408.7-208.8,408.7z M-209,409.8h-0.1V409
			c0,0,0.3,0,0.3,0c0.2,0,0.3,0.1,0.3,0.3c0,0.1-0.1,0.2-0.2,0.2l0.2,0.3h-0.1l-0.2-0.3l-0.2,0L-209,409.8L-209,409.8z
			 M-208.8,409.4c0.1,0,0.2-0.1,0.2-0.2c0-0.1-0.1-0.2-0.2-0.2c0,0-0.1,0-0.1,0v0.3L-208.8,409.4z"/>
	</g>
</g>
</svg>
